<svg xmlns="http://www.w3.org/2000/svg" width="1632" height="429.872" viewBox="0 0 1632 429.872"><g transform="translate(-453 622)"><path d="M402.1,297V157.27a75.183,75.183,0,0,0-37.606-65.123L243.5,22.27a75.2,75.2,0,0,0-75.19,0l-121,69.88a75.18,75.18,0,0,0-37.6,65.12V297a75.19,75.19,0,0,0,37.6,65.12l121,69.87a75.15,75.15,0,0,0,75.19,0l121-69.87A75.19,75.19,0,0,0,402.1,297Z" transform="translate(443.35 -634.198)" fill="#070707"/><path d="M205.88,21.24a66.232,66.232,0,0,1,33.131,8.877L360,100a66.33,66.33,0,0,1,33.07,57.29V297A66.33,66.33,0,0,1,360,354.3L239,424.18a66.17,66.17,0,0,1-66.15,0l-121-69.88A66.33,66.33,0,0,1,18.7,297V157.27A66.33,66.33,0,0,1,51.77,100l121-69.87a66.22,66.22,0,0,1,33.08-8.87m0-9a75.08,75.08,0,0,0-37.6,10.07l-121,69.88a75.18,75.18,0,0,0-37.6,65.12V297a75.19,75.19,0,0,0,37.6,65.12l121,69.87a75.15,75.15,0,0,0,75.19,0l121-69.87A75.19,75.19,0,0,0,402.1,297V157.27a75.183,75.183,0,0,0-37.606-65.123L243.5,22.27A75.07,75.07,0,0,0,205.88,12.2Z" transform="translate(443.35 -634.198)" fill="#2e2e2e"/><path d="M378.78,288.71V165.57a66.251,66.251,0,0,0-33.133-57.381L239,46.62a66.22,66.22,0,0,0-66.25,0L66.1,108.19A66.25,66.25,0,0,0,33,165.57V288.71A66.27,66.27,0,0,0,66.1,346.1l106.65,61.57a66.27,66.27,0,0,0,66.25,0L345.65,346.1A66.27,66.27,0,0,0,378.78,288.71Z" transform="translate(443.35 -634.198)" fill="#fff" opacity="0.05"/><text transform="translate(551 -319)" fill="#76003B" font-size="238" font-family="SnapITC-Regular, Snap ITC"><tspan x="0" y="0">S</tspan></text><text transform="translate(908 -319.5)" fill="#76003B" stroke="#707070" stroke-width="3" font-size="238" font-family="SnapITC-Regular, Snap ITC"><tspan x="0" y="0">SmdBoys</tspan></text></g></svg>